<svg id="Livello_2_copia" data-name="Livello 2 copia" xmlns="http://www.w3.org/2000/svg" viewBox="0 0 595.28 841.89"><defs><style>.cls-1{fill:#432918;}.cls-2{fill:#936037;}.cls-3{fill:#b8935e;}.cls-4{fill:#82502b;}.cls-5{fill:#fff;}.cls-6{fill:#3a2e16;}.cls-7{fill:#f4e8d4;}.cls-8{fill:#151515;}.cls-9{fill:#6cbfa0;}.cls-10{fill:#0f0f0f;}.cls-11{fill:#202020;}.cls-12{fill:#525252;}.cls-13{fill:#c9c9c9;}.cls-14{fill:#966e58;}.cls-15{fill:#6e4122;}.cls-16{fill:#fefefe;}.cls-17{fill:#282828;}.cls-18{fill:#676767;}.cls-19{fill:#e9e8e8;}.cls-20{fill:#bdbdbc;}.cls-21,.cls-22{fill:none;stroke:#1d1d1b;stroke-miterlimit:10;}.cls-22{stroke-width:0.5px;}</style></defs><path class="cls-1" d="M363.17,285.32l-5.71,1.56,2.64,5,6.33-1.05,9.76-1.6,5.8,1.86s2.11-1.06,10.81-1.86c0,0,1.85-1,6.86-4.21,0,0,1.32,2.11-3.56,8.18A65.46,65.46,0,0,0,391,299l-2.11,4.75,17.4-7.65a6.73,6.73,0,0,1,0,3.69,36.77,36.77,0,0,1-2.9,4.49s-1.58,1.31-4.85,3.95a46.89,46.89,0,0,0-4.78,4.49s-2.76,1.84-2.24,3.69c0,0,3.7,3.69,1.59,5.27,0,0-1.06,1.06-2.95,3v5.94l-52.94,8.91L316.36,343l-16,2.7-2.69.45-3.8-4.45-1.79-1.45-2.94-2.91-1.21-2a56.71,56.71,0,0,0-4.55-3.76l-2.77-1.71,6.33,10.42,3.66,4.94,1.88,1.78,5.19-.82-9,1.52-2.09-2.81-4.36-5.27-6.46-5.81-7.12-3.95-4.35-5.18-6.2-4.58-7.13-6.27-6.2-3.75-4.34-4-4.48-8.7-3.43-5.54-5-9.49-2.27-7.92-1.95-4.74V257.87l-1.06-5V246s-6.06-11.08-8.43-15.24l-6.86.47a16.15,16.15,0,0,0-7.91,0,100.31,100.31,0,0,0-10.55,2,38.74,38.74,0,0,0-9.76,0l-4.75,2-11.34-4-2.11-2.64-7.65-9.49-5.54-6.33-3.69-5.28L139.62,202l-1.32-3.7-2.11-3.95-1.06-3.69-.79-3.7-.26-3.43L133,176.37v-3.69l6.6-18.72,2.11-5.81,6.06-11.86,6.33-10.82,12.66-10.28,12.66-6.07,19.78-10.55L211.09,92,224,85.91l18.73-5.54,26.31-5.53,28.59-5L303.92,68l6.6.26,5.27-1,5.8-2.64h31.12l8.71,3.69,4.88,1.85L377,72.2h24.26l4,2.64H416L427.88,78l9.76,6.33,3.95,2.11L445,90.13l6.07,2.64,9,2.37,20.84,14,14.77,11.61,17.41,15.82L523.35,149l5.28,6.32,4.74,5.28,4.75,4.48,1.06,3.17a16.81,16.81,0,0,1,0,5.8l-2.11,5.27,2.37,1.85,4.48-3.16,1.06-1.85,6.33-7.91-.79,2.21-.53,1.48V174l-4,6.59-4.48,4s-5.28,5-4,6.86l2.9,5,3.7,5.27,3.43,6.6L549.2,213l1.58,7.39,2.37,4.74v3.17l-1.84,6.33v4l-1.06,3.16v6.33L548.41,256l-1.85,4.22-2.11,4-1.58,3.69-3.43,3.16-4.75,3.43v1.06l-2.64-4.75a61.88,61.88,0,0,0-5.53-7.38,68.42,68.42,0,0,0-6.33-5,39.65,39.65,0,0,1-6.33-1.85s-2.9-.26-6.33-.79l-7.39-.53a14.34,14.34,0,0,0-6.85,2.64l-2.38,2.37-7.38,1.58-12.4,3.7-9.49,2.11s-9.76,3.16-11.61,3.16a42.81,42.81,0,0,0-9,1.32s-3.43.79-9.5,2.37l-7.12,1.85-23.74,1.58s-5.27.53-11.6.53c0,0-2.11,0-6.86,4,0,0-2.11.26-6.85,1.31,0,0-1.85.27-4.22.53a64.41,64.41,0,0,0-7.92,1.06Zm-1.73.28.49-.08Z"/><path class="cls-2" d="M534.69,275.54v6.59l-1.58,2.38-1.32,3.42-1,3.7-1.59,3.69v3.43l-1,3.95v4.22l-2.37,2.38v3.16l-1.59,4v3.69L522,322.75v3.16l-1,2.64-1.32,4.22v3.69L517,339.1v24.79l-2.11,4.48v10l-2.11,3.42L510.43,385v6.33l-2.11,2.9v9l-1.58,5.54-5.28,10.81-2.11,7.12,2.11,5.54-3.69,3.43-6.33,4.22-5,2.37-6.33,2.9H468.49l-2.9-2.9-2.9-2.64a63.39,63.39,0,0,0-4.55-6.59l-.72-6.33v-5l1.45-4.21V403.58l4.09-8.44L464,392l.92-2.51.66-4.88,1.45-7V360.07l-1.18-5.81-.93-2.11-1.05-1.84-1.06-2.11-3-3.17L458,343.45,455,341.6l-2.24-1.45L449.64,339,447,337.38H435.92l-4.61.93-7.91-6.07-14.25-3.69-11.34.79-7.69,1.29v-5.94c1.89-1.94,2.95-3,2.95-3,2.11-1.58-1.59-5.27-1.59-5.27-.52-1.85,2.24-3.69,2.24-3.69a46.89,46.89,0,0,1,4.78-4.49c3.27-2.64,4.85-3.95,4.85-3.95a36.77,36.77,0,0,0,2.9-4.49,6.73,6.73,0,0,0,0-3.69l-17.4,7.65L391,299a65.46,65.46,0,0,1,5.14-5.8c4.88-6.07,3.56-8.18,3.56-8.18-5,3.17-6.86,4.21-6.86,4.21-8.7.8-10.81,1.86-10.81,1.86l-5.8-1.86-9.76,1.6-6.33,1.05-2.64-5,5.71-1.56.09,0a64.41,64.41,0,0,1,7.92-1.06c2.37-.26,4.22-.53,4.22-.53,4.74-1,6.85-1.31,6.85-1.31,4.75-4,6.86-4,6.86-4,6.33,0,11.6-.53,11.6-.53l23.74-1.58,7.12-1.85c6.07-1.58,9.5-2.37,9.5-2.37a42.81,42.81,0,0,1,9-1.32c1.85,0,11.61-3.16,11.61-3.16l9.49-2.11,12.4-3.7,7.38-1.58,2.38-2.37a14.34,14.34,0,0,1,6.85-2.64l7.39.53c3.43.53,6.33.79,6.33.79a39.65,39.65,0,0,0,6.33,1.85,68.42,68.42,0,0,1,6.33,5,61.88,61.88,0,0,1,5.53,7.38Z"/><path class="cls-3" d="M458.87,403.58v13.91l-1.45,4.21v5l.72,6.33a63.39,63.39,0,0,1,4.55,6.59l2.9,2.64,2.9,2.9H480.1l6.33-2.9,5-2.37v53.47l-5.28,6.39L482,506.57l-7.39,8.18-12.92,15.82-6.33,9.76-6.6,9.49L441.07,562l-6.6,11.34-12.66,20-9.23,16.88-17.4,31.12H349.29l-13.19-5.8-7.12-4-8.71-8.44-4.22-7.38-5-9.23-5.27-10.29-2.11-6.06-2.9-7.13-3.12-3.95-8.49-4.48-9-1.32-10.55,1.58-14.51,1.58-18.72,1.32-12.14-2.11-8.43-1.85-9.24-3.16-8.44-3.43-8-7.38-3.82-6.6-2.9-6.85V539l1.31-8.17-1.31-9.5-1.32-5.27-2.64-4h2.37l10.82-6.33,5.8-2.37,5.8-2.64,9.5-3.43,6.32-3.16-1.84-2.38-6.33-2.11-5.28-.79-5.8-2.9-3.43-3.43-7.64-4.48-7.92-1.58h-4.22l-6.33-4.22h-3.69l-4.75-2.38H161l-1.06-2.9,1.06-1.85,1.32-4.74,1.58-5.28V450.4l-.26-5.54.24-3.91,2.92,1.27H170l13.45-1.41,6.72-.7,7-1.85,4.48-4.22V419l-3.43-4.75L196.05,410l-1.58-3.69-1.32-3.16-1.3-4,2.89,2.11,1.58,3.69,2.79,3.65.64.84,1.84,3.43,3.17,2.63L210,419l5.54,1.93,8.18-4.3,4.48-6.07,1.58-8.7.53-8.44v-7.91l-1.05-6.6-2.64-11.34-2.9-4.48,1.42-.14L227.7,364,231,365l5.81.79,6.46-1.59,5.15-.92,8.44-1.32,7.38-2.24-6.47-4.31L285.35,351l5.22-.83,7.07,8.36,6.88,3.76h4.94l5.74,2,5.34-1.19a85.21,85.21,0,0,1,10.78-.19c3.12.07,5.64.19,5.64.19a30.54,30.54,0,0,0,3.56-1.18H331l-1.78-1.31a21.8,21.8,0,0,1,5.14-2.06l2.58-1.31a12.45,12.45,0,0,1,3.56,0l2.57-1.06,1.79-.75,3.75,5.18,3.82,5.59,2.64,6.73,2.64,5.8,1.58,4h3.43a5.86,5.86,0,0,1,3.42-1.32,29,29,0,0,1,2.38,3.95,12.58,12.58,0,0,0,2.64-1.55c2.11-1.88,3.69-3.19,3.69-3.19a34.48,34.48,0,0,0,4.75-2.91l3.42-7.3,1.32-2.72,1.32-3.36h1.58L392,362l2.11-1.5L397,358l1.48-8.13,1.95-2.2a10.46,10.46,0,0,1,7.12,2.2l2.11.53,6.07-1.21v-5.38l2-.93L421,341.6l2.51-.92,2.37-.66h1.32l1.19-.39,2.9-1.32,4.61-.93H447l2.64,1.59,3.16,1.18L455,341.6l2.91,1.85,1.84,1.58,3,3.17,1.06,2.11,1.05,1.84.93,2.11,1.18,5.81V377.6l-1.45,7-.66,4.88L464,392,463,395.14Zm-20.05-11.73v-2.38l-.92-3.69-1-2.9-.86-2.11-1.31-2.24-2-2.38-1.45-1.58-2.38-1.71-1.84-.79-2-.75-2.11-1.5-2.11-1.45-3.16-2.24h-1l-.2,1-.3,2.37a25.22,25.22,0,0,0-.59,3s-.1.89-.1,2.67c0,0,.3.49,1.29,2a5.29,5.29,0,0,1-.2,1.88,24.26,24.26,0,0,1-2.37,1.48l-1.68.89-1.88.36s-.79-.66-2,.53c0,0-.92,1.58-1.32,2.51,0,0-.4,1.45-1.19,5.4a23.24,23.24,0,0,0,.53,4.35,8.85,8.85,0,0,1-1,2.9,41.2,41.2,0,0,0-3.17,3.3,34.86,34.86,0,0,0-4,3.3s-.65,1.84,1.32,3.95l4,.93h4.22l3.69-.53,3.17-2.51,2.77-1.84,4.08-.53,2.38.26,4.08.8,3-1.32,2.37-1.59a32.76,32.76,0,0,0,3.23-4.22l1-2.24Z"/><path class="cls-4" d="M438.82,389.47v2.38l-.92,3.29-1,2.24a32.76,32.76,0,0,1-3.23,4.22l-2.37,1.59-3,1.32-4.08-.8-2.38-.26-4.08.53L415,405.82l-3.17,2.51-3.69.53h-4.22l-4-.93c-2-2.11-1.32-3.95-1.32-3.95a34.86,34.86,0,0,1,4-3.3,41.2,41.2,0,0,1,3.17-3.3,8.85,8.85,0,0,0,1-2.9,23.24,23.24,0,0,1-.53-4.35c.79-3.95,1.19-5.4,1.19-5.4.4-.93,1.32-2.51,1.32-2.51,1.19-1.19,2-.53,2-.53l1.88-.36,1.68-.89a24.26,24.26,0,0,0,2.37-1.48,5.29,5.29,0,0,0,.2-1.88c-1-1.49-1.29-2-1.29-2,0-1.78.1-2.67.1-2.67a25.22,25.22,0,0,1,.59-3l.3-2.37.2-1h1l3.16,2.24,2.11,1.45,2.11,1.5,2,.75,1.84.79,2.38,1.71,1.45,1.58,2,2.38,1.31,2.24.86,2.11,1,2.9Z"/><path class="cls-5" d="M431.31,338.31l-2.9,1.32-9-4.75-8.7-2.11H399.66l-8.7,1.32-1,.16-2.21.35L303.4,348.07l-8.84,1.41-4,.64-5.22.83-.42-2.62,3.68-.62,9-1.52,2.69-.45,16-2.7,20.82-3.5,52.94-8.9h0l7.69-1.29,11.34-.79,14.25,3.69Z"/><path class="cls-2" d="M428.41,339.63l-1.19.39H425.9l-2.37.66-2.51.92-3.29,1.32-2,.93v5.38l-6.07,1.21-2.11-.53a10.46,10.46,0,0,0-7.12-2.2l-1.95,2.2L397,358l-2.9,2.5L392,362l-4.75,2.18h-1.58l-1.32,3.36L383,370.3l-3.42,7.3a34.48,34.48,0,0,1-4.75,2.91s-1.58,1.31-3.69,3.19a12.58,12.58,0,0,1-2.64,1.55,29,29,0,0,0-2.38-3.95,5.86,5.86,0,0,0-3.42,1.32h-3.43l-1.58-4-2.64-5.8-2.64-6.73-3.82-5.59-3.75-5.18h0l5.72-2.4,8.71-2.83,8.7-2.41,5.94-3.07,6.13-4.16,3.36-2.44,3-1.71,1.33-1.73,2.21-.35,1-.16,8.7-1.32h11.08l8.7,2.11Z"/><path class="cls-1" d="M387.74,334.6l-1.33,1.73-3,1.71-3.36,2.44L374,344.64,368,347.71l-8.7,2.41L350.6,353l-5.72,2.4h0l-1.79.75-2.57,1.06a12.45,12.45,0,0,0-3.56,0l-2.58,1.31a21.8,21.8,0,0,0-5.14,2.06l1.78,1.31h9.5A30.54,30.54,0,0,1,337,363s-2.52-.12-5.64-.19a85.21,85.21,0,0,0-10.78.19l-5.34,1.19-5.74-2h-4.94l-6.88-3.76-7.07-8.36,4-.64.07.43,5.53,4.49,3.76,1.91,4.55,1.38h4.16a16.25,16.25,0,0,0,6.72,0,4.29,4.29,0,0,0,0-3.29l-6.13-3.24-4.35-1.25-4.16-.68-1.31-1.16Z"/><path class="cls-2" d="M319.35,354.4a4.29,4.29,0,0,1,0,3.29,16.25,16.25,0,0,1-6.72,0h-4.16l-4.55-1.38-3.76-1.91-5.53-4.49-.07-.43,8.84-1.41,1.31,1.16,4.16.68,4.35,1.25Z"/><path class="cls-2" d="M293.84,341.74l3.8,4.45-5.19.82-1.88-1.78-3.66-4.94-6.33-10.42,2.77,1.71a56.71,56.71,0,0,1,4.55,3.76l1.21,2,2.94,2.91Z"/><path class="cls-3" d="M286.52,344.9l2.09,2.81-3.68.62-34,4.4-1.17-.58-1.85-1-2.37-.66-6.33-2.51-5.41-1.58L230,345l-3.57-1.45h-2.24l-3.69-1.05-4-.79h-5.4l-4-3.7,3.83-.72,3.75-1.78,1.78-.79,5.35-2.57,6.72,1.18,6.73-.2,8.11.4,6.33,1,7.71,1,6.13,1.78h9.1a35.46,35.46,0,0,0-4.94-3.56L264,331.19l-4-2.38-4-2h-4.54l-5.94-2.15-7.12-3h-40l-4.74,2.18-3.17,2.37-2.17,2.57V332l2.37.53-3.69.79-2.38.52-1.31,1.45-4.22,3.83-1.42,4.42-.69,2.17h-7.36v-1.78l-.24-2.39-.55-1.33-.54-1.24-1-2.18L166.05,334v-1l-1-1.78-3-4.75-3-4.75-2.77-2.57-4.28-5.28,1.25-1.38-.79-10.55-.79-7.38,1.58-3.69,1.85-4.22,1.58-8.71.79-10.28v-8.71l.26-8.44,2.38-8.7,2.37-10.55,11.34,4,4.75-2a38.74,38.74,0,0,1,9.76,0,100.31,100.31,0,0,1,10.55-2,16.15,16.15,0,0,1,7.91,0l6.86-.47c2.37,4.16,8.43,15.24,8.43,15.24v6.86l1.06,5v11.87l1.95,4.74,2.27,7.92,5,9.49,3.43,5.54,4.48,8.7,4.34,4,6.2,3.75,7.13,6.27,6.2,4.58,4.35,5.18,7.12,3.95,6.46,5.81Z"/><polygon class="cls-5" points="284.93 348.33 285.35 350.95 257.76 355.36 257.75 355.35 240.63 358.09 239.57 361.52 225.17 362.96 223.75 363.1 226.65 367.58 229.29 378.92 230.34 385.52 230.34 393.43 229.81 401.87 228.23 410.57 223.75 416.64 215.57 420.94 210.03 419.01 204.76 415.58 201.59 412.95 199.75 409.52 199.11 408.68 200.77 409.71 203.24 411.59 205.32 413.47 210.36 416.84 213.13 417.92 215.41 417.92 217.88 417.53 220.85 415.45 222.33 413.87 224.11 409.62 225.17 407.54 225.17 403.29 225.17 396.33 225.17 389.34 223.62 380.14 221.74 372.13 220.15 365.74 219.16 363.13 218.47 363.13 217.88 362.14 216.49 361.25 215.21 359.67 215.21 357.3 215.21 355.35 213.92 352.95 211.65 349.23 209.57 347.01 208.29 345.63 206.8 344.64 203.84 342.16 201.59 340.58 198.79 339.4 195.53 337.62 193.15 336.58 190.58 336.03 186.73 336.03 182.97 337.12 182.47 338.44 181.98 339.3 180.99 340.48 180.35 342.16 179.7 344.14 177.76 343.52 179.18 339.1 183.4 335.27 184.71 333.82 187.09 333.3 190.78 332.51 198.69 333.56 202.65 335.27 207.13 338.04 211.09 341.74 214.52 345.69 217.15 350.44 218.74 354.4 225.99 354.4 237.99 354.4 250.9 352.73 284.93 348.33"/><path class="cls-6" d="M272.67,337.32h-9.1l-6.13-1.78-7.71-1-6.33-1-8.11-.4-6.73.2-6.72-1.18-5.35,2.57-1.78.79L211,337.32l-3.83.72-4.48-2.77-4-1.71L195,333l-4.22-.52-2.37-.53v-3.17l2.17-2.57,3.17-2.37,4.74-2.18h40l7.12,3,5.94,2.15h4.54l4,2,4,2.38,3.76,2.57A35.46,35.46,0,0,1,272.67,337.32Z"/><polygon class="cls-7" points="264.23 359.67 256.85 361.91 248.41 363.23 243.26 364.15 236.8 365.74 230.99 364.95 227.7 364.02 225.17 362.96 239.57 361.52 240.63 358.09 257.76 355.36 264.23 359.67"/><path class="cls-7" d="M250.9,352.73,238,354.4H226l12.61-.56-.17-.3h2.46l3.56-.59-1-1.16-1.52-1.55-2.9-1.71-2.9-.82-3.37-1-4.61-1.59-1.52-.72h-1.41l-1.55.46-2.25.26H218l-2.11-1.45a1.65,1.65,0,0,0-.73-.66l-.79-.19s-1.06-.53-.86,0l1.06.85,1.32,1.78,1.64,2.22,1.72-.3,2.57-.4s-1.85,1-3,1.62h-.92l.79.6,1.19,0,1.65-.56,1.38-.56v1.12l-1,.39-1.85.73-1.18-.33.53.86,1.64.39,2.91-2,1.51-1.16H227l.73,1.12-1.29,2.57L226,354.4h-7.25V353l-1.59-2.51-2.63-4.75-3.43-3.95h5.4l4,.79,3.69,1.05h2.24L230,345l3.82,1.32,5.41,1.58,6.33,2.51,2.37.66,1.85,1Z"/><path class="cls-8" d="M243.4,351.79l1,1.16-3.56.59h-2.46l-.08-.15-.54-.44-.74-.75-.7-.41-.59-.43-1-.59-1.65-.42-1.51-.52-1.46-.24h0l-2.37-.39-.73-1.12h-1.58L224,349.23l-2.91,2-1.64-.39-.53-.86,1.18.33,1.85-.73,1-.39v-1.12l-1.38.56-1.65.56-1.19,0-.79-.6h.92c1.12-.63,3-1.62,3-1.62l-2.57.4-1.72.3-1.64-2.22-1.32-1.78-1.06-.85c-.2-.53.86,0,.86,0l.79.19a1.65,1.65,0,0,1,.73.66l2.11,1.45h3.42l2.25-.26,1.55-.46h1.41l1.52.72,4.61,1.59,3.37,1,2.9.82,2.9,1.71Z"/><path class="cls-9" d="M238.43,353.54l.17.3L226,354.4l.49-2.64,1.29-2.57v2.6l1.17-1.35h1.6l.45,1.35,2.42-1.35,1.38.33s0,1.12,0,1.85l.86-.4,1.45,0-.93.85-.19.49h2.48Z"/><polygon class="cls-10" points="238.35 353.39 238.43 353.54 237.13 353.54 235.95 353.54 236.14 353.05 237.07 352.2 237.81 352.95 238.35 353.39"/><path class="cls-11" d="M237.07,352.2l-1.45,0-.86.4c.06-.73,0-1.85,0-1.85l1,.59.59.43Z"/><polygon class="cls-12" points="233.41 350.44 230.99 351.79 230.54 350.44 228.94 350.44 227.77 351.79 227.77 349.19 230.14 349.58 230.17 349.59 233.14 350.35 233.41 350.44"/><polygon class="cls-13" points="225.17 403.29 225.17 407.54 224.11 409.62 222.33 413.87 220.85 415.45 217.88 417.53 215.41 417.92 213.13 417.92 210.36 416.84 205.32 413.47 203.24 411.59 200.77 409.71 199.11 408.68 196.32 405.03 194.74 401.34 191.85 399.23 190.12 393.96 186.21 387.65 182.08 375.49 181.76 374.88 182.47 374.51 180.99 369.26 179.41 363.03 178.22 358.68 178.22 355.35 178.81 350.44 178.81 348.07 179.31 346.22 179.7 344.14 180.35 342.16 180.99 340.48 181.98 339.3 182.47 338.44 182.97 337.12 186.73 336.03 190.58 336.03 193.15 336.58 195.53 337.62 198.79 339.4 201.59 340.58 203.84 342.16 206.8 344.64 208.29 345.63 209.57 347.01 211.65 349.23 213.92 352.95 215.21 355.35 215.21 357.3 215.21 359.67 216.49 361.25 217.88 362.14 218.47 363.13 219.16 363.13 220.15 365.74 221.74 372.13 223.62 380.14 225.17 389.34 225.17 396.33 225.17 403.29"/><polygon class="cls-14" points="218.21 491.8 220.05 494.18 213.73 497.34 204.23 500.77 198.43 503.41 192.63 505.78 181.81 512.11 179.44 512.11 175.88 512.11 171.26 506.31 169.95 501.56 169.95 499.45 169.95 494.7 172.58 489.96 181.81 482.57 182.08 481.11 183.92 483.36 185.51 486.26 190.52 487.58 194.47 487.58 198.16 485.47 197.37 482.57 200.8 486 206.6 488.9 211.88 489.69 218.21 491.8"/><polygon class="cls-3" points="166.55 363.75 167.31 361.78 169.95 350.44 176.27 350.44 176.54 359.93 178.12 367.85 181.76 374.88 182.08 375.49 186.21 387.65 186.56 388.68 190.12 393.96 191.85 399.23 193.15 403.19 194.47 406.35 196.05 410.04 198.16 414.26 201.59 419.01 201.59 426.92 201.59 434.04 197.11 438.26 190.12 440.11 183.4 440.81 183.4 438.26 178.91 435.63 174.16 433.52 168.89 432.73 164.41 431.93 159.92 433.52 159.92 435.1 160.98 437.08 166.78 442.22 163.86 440.95 158.87 438.79 152.8 437.21 145.95 432.2 140.93 426.66 139.09 421.7 140.13 412.43 140.14 412.37 144.89 398.44 151.22 391.32 152.69 389.33 160.98 378.13 164.94 367.89 166.55 363.75"/><polygon class="cls-13" points="197.37 482.57 198.16 485.47 194.47 487.58 190.52 487.58 185.51 486.26 183.92 483.36 182.08 481.11 183.92 479.67 187.88 480.73 197.37 482.57"/><polygon class="cls-14" points="197.37 482.57 187.88 480.73 183.92 479.67 182.08 481.11 182.34 479.67 175.48 480.2 169.42 476.77 163.88 473.87 160.98 469.91 162.82 469.91 167.57 472.29 171.26 472.29 177.59 476.51 181.81 476.51 189.73 478.09 197.37 482.57"/><polygon class="cls-15" points="183.4 438.26 183.4 440.81 166.78 442.22 160.98 437.08 159.92 435.1 159.92 433.52 164.41 431.93 168.89 432.73 174.16 433.52 178.91 435.63 183.4 438.26"/><polygon class="cls-16" points="163.73 346.14 161.77 344.9 159.92 344.64 161.51 350.44 162.82 356.51 163.88 360.99 164.31 364.02 163.58 362.24 162.56 359.57 161.51 356.11 160.91 354.4 160.52 352.95 159.92 350.87 159.43 349.68 158.84 347.71 158.11 346.12 157.25 345.33 156.16 344.84 156.16 343.55 156.16 342.26 156.16 341.74 156.16 341.08 155.47 339.79 154.78 338.04 153.99 337.12 152.01 334.55 151.12 333.07 149.74 331.38 148.95 330.4 147.36 329.01 145.98 327.73 144.2 326.54 142.52 325.45 140.74 324.69 139.09 323.8 135.66 323.8 139.09 321.69 143.04 322.48 148.58 324.86 154.65 331.98 157.29 335.93 158.6 339.63 159.92 340.68 163.09 340.68 164.31 341.71 164.31 341.72 166.52 343.58 168.63 345.69 169.71 345.69 171.66 345.69 175.22 345.69 177.07 345.69 177.76 343.52 179.7 344.14 179.31 346.22 178.81 348.07 178.81 350.44 178.22 355.35 178.22 358.68 179.41 363.03 180.99 369.26 182.47 374.51 181.76 374.88 178.12 367.85 176.54 359.93 176.54 352.29 176.27 350.44 169.95 350.44 166.78 348.07 163.73 346.14"/><polygon class="cls-9" points="169.95 350.44 167.31 361.78 166.55 363.75 165.16 360.12 164.52 357.79 164.31 356.65 164.31 356.11 163.73 349.29 163.73 348.3 163.73 347.26 163.73 346.14 166.78 348.07 169.95 350.44"/><path class="cls-17" d="M169.71,345.43v.26h-1.08l-2.11-2.11-2.21-1.86h0v-1.89l-.28-.67-.3-1.11-.79-1-1.09-1-.84-.49v-.74l.38-.44.51.39,4.15.79V334l1.29,2.81,1,2.18.54,1.24.55,1.33.24,2.39v1.52Z"/><polygon class="cls-18" points="166.55 363.75 164.94 367.89 164.41 364.68 164.31 364.02 163.88 360.99 162.82 356.51 161.51 350.44 159.92 344.64 161.77 344.9 163.73 346.14 163.73 347.26 163.73 348.3 163.73 349.29 164.31 356.11 164.31 356.65 164.52 357.79 165.16 360.12 166.55 363.75"/><polygon class="cls-6" points="166.05 333.96 166.05 335.54 161.9 334.75 161.39 334.36 159.07 332.57 155.77 330.4 153 327.23 150.69 324.07 150.16 320.64 150.69 315.36 152.08 313.84 156.36 319.12 159.13 321.69 162.1 326.44 165.07 331.19 166.05 332.97 166.05 333.96"/><polygon class="cls-19" points="164.94 367.89 160.98 378.13 152.69 389.33 150.92 386.67 149.24 383.21 147.66 380.64 146.47 377.77 145.48 375.2 144.1 372.23 141.26 364.02 140.67 363.1 139.09 357.56 138.03 354.13 138.03 352.95 136.04 346.19 135.66 342.26 134.47 338.57 134.08 333.56 135.66 323.8 139.09 323.8 140.74 324.69 142.52 325.45 144.2 326.54 145.98 327.73 147.36 329.01 148.95 330.4 149.74 331.38 151.12 333.07 152.01 334.55 153.99 337.12 154.78 338.04 155.47 339.79 156.16 341.08 156.16 341.74 156.16 342.26 156.16 343.55 156.16 344.84 157.25 345.33 158.11 346.12 158.84 347.71 159.43 349.68 159.92 350.87 160.52 352.95 160.91 354.4 161.51 356.11 162.56 359.57 163.58 362.24 164.31 364.02 164.41 364.68 164.94 367.89"/><path class="cls-20" d="M164.31,340.29v1.42l-1.22-1h-3.17l-1.32-1.05-1.31-3.7L154.65,332l-6.07-7.12,2.11-.79,2.31,3.16,2.77,3.17,3.3,2.17,2.32,1.79-.38.44v.74l.84.49,1.09,1,.79,1,.3,1.11.28.67Z"/><polyline class="cls-21" points="163.88 473.87 169.42 476.77 175.48 480.2"/><polyline class="cls-21" points="179.44 512.11 181.81 512.11 192.63 505.78 198.43 503.41 204.23 500.77 213.73 497.34 220.05 494.18 218.21 491.8 211.88 489.69 206.6 488.9 200.8 486 197.37 482.57 189.73 478.09 181.81 476.51 177.59 476.51 171.26 472.29 167.57 472.29 162.82 469.91 160.98 469.91"/><polyline class="cls-21" points="169.95 501.56 169.95 503.14 171.26 506.31"/><polyline class="cls-21" points="181.81 482.57 176.01 486.26 172.58 489.96"/><polygon class="cls-21" points="182.08 481.11 183.92 483.36 185.51 486.26 190.52 487.58 194.47 487.58 198.16 485.47 197.37 482.57 187.88 480.73 183.92 479.67 182.08 481.11"/><polyline class="cls-21" points="176.54 359.93 176.54 352.29 176.27 350.44"/><polyline class="cls-21" points="190.12 393.96 186.56 388.68 186.21 387.65"/><polyline class="cls-21" points="163.86 440.95 166.78 442.22 169.95 442.22 183.4 440.81 190.12 440.11 197.11 438.26 201.59 434.04 201.59 426.92 201.59 419.01 198.16 414.26 196.05 410.04 194.47 406.35 193.15 403.19 191.85 399.23"/><polyline class="cls-21" points="140.13 412.43 139.09 416.37 139.09 421.7"/><polyline class="cls-21" points="144.89 398.44 141.73 406.35 140.14 412.37"/><polyline class="cls-21" points="169.95 350.44 167.31 361.78 166.55 363.75 164.94 367.89"/><polygon class="cls-21" points="166.78 442.22 160.98 437.08 159.92 435.1 159.92 433.52 164.41 431.93 168.89 432.73 174.16 433.52 178.91 435.63 183.4 438.26 183.4 440.81 166.78 442.22"/><path class="cls-21" d="M146.21,382.35l4.22,7.12.79,1.85-6.33,7.12-4.75,13.93v.06l-1,9.27,1.84,5,5,5.54,6.85,5,6.07,1.58,5,2.16-.24,3.91.26,5.54v4.74l-1.58,5.28L161,465.16,159.92,467l1.06,2.9,2.9,4,11.6,6.33,6.86-.53-.26,1.44-.27,1.46L172.58,490,170,494.7v6.86l1.31,4.75,4.62,5.8h3.56l2.64,4,1.32,5.27,1.31,9.5L183.4,539v7.39l2.9,6.85,3.82,6.6,8,7.38,8.44,3.43,9.24,3.16,8.43,1.85,12.14,2.11,18.72-1.32,14.51-1.58,10.55-1.58,9,1.32,8.49,4.48,3.12,3.95,2.9,7.13,2.11,6.06L311,606.53l5,9.23,4.22,7.38,8.71,8.44,7.12,4,13.19,5.8h45.89l17.4-31.12,9.23-16.88,12.66-20,6.6-11.34,7.64-12.14,6.6-9.49,6.33-9.76,12.92-15.82,7.39-8.18,4.21-6.86,5.28-6.39V439.85l6.33-4.22,3.69-3.43-2.11-5.54,2.11-7.12,5.28-10.81,1.58-5.54v-9l2.11-2.9V385l2.37-3.17,2.11-3.42v-10l2.11-4.48V339.1l2.64-2.64v-3.69l1.32-4.22,1-2.64v-3.16l2.11-2.64v-3.69l1.59-4V309.3l2.37-2.38V302.7l1-3.95v-3.43l1.59-3.69,1-3.7,1.32-3.42,1.58-2.38v-7.65l4.75-3.43,3.43-3.16,1.58-3.69,2.11-4,1.85-4.22,1.84-7.91v-6.33l1.06-3.16v-4l1.84-6.33v-3.17l-2.37-4.74L549.2,213l-1.58-4.74-3.43-6.6-3.7-5.27-2.9-5c-1.32-1.85,4-6.86,4-6.86l4.48-4,4-6.59v-2.11l.53-1.48.79-2.21L545,176.11,543.92,178l-4.48,3.16-2.37-1.85,2.11-5.27a16.81,16.81,0,0,0,0-5.8L538.12,165l-4.75-4.48-4.74-5.28L523.35,149l-10.28-12.4-17.41-15.82-14.77-11.61-20.84-14-9-2.37L445,90.13l-3.43-3.69-3.95-2.11L427.88,78,416,74.84H405.2l-4-2.64H377L366.3,70.09l-4.88-1.85-8.71-3.69H321.59l-5.8,2.64-5.27,1-6.6-.26-6.28,1.84-28.59,5-26.31,5.53L224,85.91,211.09,92l-11.87,6.59-19.78,10.55-12.66,6.07-12.66,10.28-6.33,10.82-6.06,11.86L139.62,154,133,172.68v3.69l1.06,7.12.26,3.43.79,3.7,1.06,3.69,2.11,3.95,1.32,3.7,3.95,5.53,3.69,5.28,5.54,6.33,7.65,9.49,2.11,2.64-2.37,10.55-2.38,8.7-.26,8.44v8.71l-.79,10.28-1.58,8.71-1.85,4.22-1.58,3.69.79,7.38.79,10.55-1.25,1.38"/><polyline class="cls-21" points="134.47 338.57 134.34 339.63 135.66 342.26 135.66 344.9 136.04 346.19 138.03 352.95 138.03 354.13"/><line class="cls-21" x1="150.69" y1="324.07" x2="148.58" y2="324.86"/><polyline class="cls-21" points="225.17 362.96 223.75 363.1 226.65 367.58 229.29 378.92 230.34 385.52 230.34 393.43 229.81 401.87 228.23 410.57 223.75 416.64 215.57 420.94 210.03 419.01 204.76 415.58 201.59 412.95 199.75 409.52 199.11 408.68 196.32 405.03 194.74 401.34 191.85 399.23 190.12 393.96 186.21 387.65 182.08 375.49 181.76 374.88 178.12 367.85 176.54 359.93 176.27 350.44 169.95 350.44 166.78 348.07 163.73 346.14 161.77 344.9 159.92 344.64 161.51 350.44 162.82 356.51 163.88 360.99 164.31 364.02 164.41 364.68 164.94 367.89 160.98 378.13 152.69 389.33 151.22 391.32 146.21 382.35 143.31 375.49 141.2 367.85 140.67 363.1 139.09 357.56 138.03 354.13 136.04 346.19 135.66 342.26 134.47 338.57 134.08 333.56 135.66 323.8 139.09 321.69 143.04 322.48 148.58 324.86 154.65 331.98 157.29 335.93 158.6 339.63 159.92 340.68 163.09 340.68 164.31 341.71"/><polyline class="cls-21" points="387.74 334.6 303.4 348.07 294.56 349.48 290.57 350.12 285.35 350.95 257.76 355.36 240.63 358.09"/><polyline class="cls-21" points="428.41 339.63 419.44 334.88 410.74 332.77 399.66 332.77 390.96 334.09 389.95 334.25"/><path class="cls-21" d="M337.18,339.54l52.94-8.91,7.69-1.29,11.34-.79,14.25,3.69,7.91,6.07"/><polyline class="cls-21" points="250.9 352.73 284.93 348.33 288.61 347.71"/><polyline class="cls-21" points="217.15 350.44 218.74 352.95 218.74 354.4"/><line class="cls-21" x1="207.13" y1="338.04" x2="211.09" y2="341.74"/><polyline class="cls-21" points="164.31 341.72 166.52 343.58 168.63 345.69 169.71 345.69 171.66 345.69 175.22 345.69 177.07 345.69 177.76 343.52 179.18 339.1 183.4 335.27 184.71 333.82 187.09 333.3 190.78 332.51 195 333.03 198.69 333.56"/><polyline class="cls-21" points="152.08 313.84 156.36 319.12 159.13 321.69 162.1 326.44 165.07 331.19 166.05 332.97 166.05 333.96 166.05 335.54 161.9 334.75 161.39 334.36 159.07 332.57 155.77 330.4 153 327.23 150.69 324.07"/><path class="cls-21" d="M190.78,332.51l-2.37-.53v-3.17l2.17-2.57,3.17-2.37,4.74-2.18h40l7.12,3,5.94,2.15h4.54l4,2,4,2.38,3.76,2.57a35.46,35.46,0,0,1,4.94,3.56h-9.1l-6.13-1.78-7.71-1-6.33-1-8.11-.4-6.73.2-6.72-1.18-5.35,2.57-1.78.79L211,337.32l-3.83.72-4.48-2.77-4-1.71Z"/><polygon class="cls-21" points="211.09 341.74 216.49 341.74 220.45 342.53 224.14 343.58 226.38 343.58 229.95 345.03 233.77 346.35 239.18 347.93 245.51 350.44 247.88 351.1 249.73 352.15 250.9 352.73 237.99 354.4 225.99 354.4 218.74 354.4 217.15 350.44 214.52 345.69 211.09 341.74"/><polygon class="cls-21" points="240.63 358.09 257.75 355.35 257.76 355.36 264.23 359.67 256.85 361.91 248.41 363.23 243.26 364.15 236.8 365.74 230.99 364.95 227.7 364.02 225.17 362.96 239.57 361.52 240.63 358.09"/><path class="cls-21" d="M418.52,358.62l3.29-3.3,1.72-2.37,3.43-1.32,3.42-1.72h4.22l4.88.79,3.3.93L446,353l2.63,1.84,1.72,2.11.79,1.72a8.71,8.71,0,0,0,1.58,3.29,10,10,0,0,1,1.71,3.3v1.71l-.52,2.77-.4,3,.4,2.37.52,2.24v1.58l.93,2.24v2.64l-.66,2.11-.53,2.11-.26,2.38-.53,2.24-.66,2.63-1.32,3.57-1.71,2.5-1.72,2.24-1.58,1.72L442,408.73l-1.85,2-2,1.32-2,1.19-2.38,1.71-3.16,1.59-3,.92a40.28,40.28,0,0,1-4.62,0c-1.45-1.32-.71-2.51-.71-2.51"/><path class="cls-21" d="M417.73,366.13l3.16,2.24,2.11,1.45,2.11,1.5,2,.75,1.84.79,2.38,1.71,1.45,1.58,2,2.38,1.31,2.24.86,2.11,1,2.9.92,3.69v2.38l-.92,3.29-1,2.24a32.76,32.76,0,0,1-3.23,4.22l-2.37,1.59-3,1.32-4.08-.8-2.38-.26-4.08.53L415,405.82l-3.17,2.51-3.69.53h-4.22l-4-.93c-2-2.11-1.32-3.95-1.32-3.95a34.86,34.86,0,0,1,4-3.3,41.2,41.2,0,0,1,3.17-3.3,8.85,8.85,0,0,0,1-2.9,23.24,23.24,0,0,1-.53-4.35c.79-3.95,1.19-5.4,1.19-5.4.4-.93,1.32-2.51,1.32-2.51,1.19-1.19,2-.53,2-.53l1.88-.36,1.68-.89a24.26,24.26,0,0,0,2.37-1.48,5.29,5.29,0,0,0,.2-1.88c-1-1.49-1.29-2-1.29-2,0-1.78.1-2.67.1-2.67a25.22,25.22,0,0,1,.59-3l.3-2.37.2-1Z"/><path class="cls-21" d="M360.45,285.77l.2,0c-.12,0,0,0,.35-.06l.31-.05.13,0,.49-.08"/><line class="cls-21" x1="361.93" y1="285.52" x2="361.44" y2="285.6"/><path class="cls-21" d="M361.93,285.52l1.24-.2"/><path class="cls-21" d="M162.56,231.23l11.34,4,4.75-2a38.74,38.74,0,0,1,9.76,0,100.31,100.31,0,0,1,10.55-2,16.15,16.15,0,0,1,7.91,0l6.86-.47c2.37,4.16,8.43,15.24,8.43,15.24v6.86l1.06,5v11.87l1.95,4.74,2.27,7.92,5,9.49,3.43,5.54,4.48,8.7,4.34,4,6.2,3.75,7.13,6.27,6.2,4.58,4.35,5.18,7.12,3.95,6.46,5.81,4.36,5.27,2.09,2.81,9-1.52,2.69-.45,16-2.7,20.82-3.5,52.94-8.9h0v-5.94c1.89-1.94,2.95-3,2.95-3,2.11-1.58-1.59-5.27-1.59-5.27-.52-1.85,2.24-3.69,2.24-3.69a46.89,46.89,0,0,1,4.78-4.49c3.27-2.64,4.85-3.95,4.85-3.95a36.77,36.77,0,0,0,2.9-4.49,6.73,6.73,0,0,0,0-3.69l-17.4,7.65L391,299a65.46,65.46,0,0,1,5.14-5.8c4.88-6.07,3.56-8.18,3.56-8.18-5,3.17-6.86,4.21-6.86,4.21-8.7.8-10.81,1.86-10.81,1.86l-5.8-1.86-9.76,1.6-6.33,1.05-2.64-5,5.71-1.56.09,0a64.41,64.41,0,0,1,7.92-1.06c2.37-.26,4.22-.53,4.22-.53,4.74-1,6.85-1.31,6.85-1.31,4.75-4,6.86-4,6.86-4,6.33,0,11.6-.53,11.6-.53l23.74-1.58,7.12-1.85c6.07-1.58,9.5-2.37,9.5-2.37a42.81,42.81,0,0,1,9-1.32c1.85,0,11.61-3.16,11.61-3.16l9.49-2.11,12.4-3.7,7.38-1.58,2.38-2.37a14.34,14.34,0,0,1,6.85-2.64l7.39.53c3.43.53,6.33.79,6.33.79a39.65,39.65,0,0,0,6.33,1.85,68.42,68.42,0,0,1,6.33,5,61.88,61.88,0,0,1,5.53,7.38l2.64,4.75"/><polyline class="cls-21" points="344.88 355.35 350.6 352.95 359.31 350.12 368.01 347.71 373.95 344.64 380.08 340.48 383.44 338.04 386.41 336.33 387.74 334.6 389.95 334.25"/><path class="cls-21" d="M290.57,350.12l7.07,8.36,6.88,3.76h4.94l5.74,2,5.34-1.19a85.21,85.21,0,0,1,10.78-.19c3.12.07,5.64.19,5.64.19a30.54,30.54,0,0,0,3.56-1.18H331l-1.78-1.31a21.8,21.8,0,0,1,5.14-2.06l2.58-1.31a12.45,12.45,0,0,1,3.56,0l2.57-1.06,1.79-.75"/><path class="cls-21" d="M303.4,348.07l1.31,1.16,4.16.68,4.35,1.25,6.13,3.24a4.29,4.29,0,0,1,0,3.29,16.25,16.25,0,0,1-6.72,0h-4.16l-4.55-1.38-3.76-1.91-5.53-4.49"/><path class="cls-21" d="M280.58,329.87l6.33,10.42,3.66,4.94,1.88,1.78,5.19-.82-3.8-4.45-1.79-1.45-2.94-2.91-1.21-2a56.71,56.71,0,0,0-4.55-3.76Z"/><path class="cls-21" d="M344.88,355.35h0l3.75,5.18,3.82,5.59,2.64,6.73,2.64,5.8,1.58,4h3.43a5.86,5.86,0,0,1,3.42-1.32,29,29,0,0,1,2.38,3.95,12.58,12.58,0,0,0,2.64-1.55c2.11-1.88,3.69-3.19,3.69-3.19a34.48,34.48,0,0,0,4.75-2.91l3.42-7.3,1.32-2.72,1.32-3.36h1.58L392,362l2.11-1.5L397,358l1.48-8.13,1.95-2.2a10.46,10.46,0,0,1,7.12,2.2l2.11.53,6.07-1.21v-5.38l2-.93L421,341.6l2.51-.92,2.37-.66h1.32l1.19-.39,2.9-1.32,4.61-.93H447l2.64,1.59,3.16,1.18L455,341.6l2.91,1.85,1.84,1.58,3,3.17,1.06,2.11,1.05,1.84.93,2.11,1.18,5.81V377.6l-1.45,7-.66,4.88L464,392,463,395.14l-4.09,8.44-2.24,3.69-2.77,4-4.22,3.82-3.3,2.77-2.77,3.12-2.9,2.69-5,3.56-8.31,4.08-5.93,2.91-4.88.79-4.62,1.18h-9.36l-4.22-.66-.79-1.18-.92-1.72-.53-2.24v-3.43a4.68,4.68,0,0,1,1-2.24"/><path class="cls-21" d="M458.87,403.58v13.91l-1.45,4.21v5l.72,6.33a63.39,63.39,0,0,1,4.55,6.59l2.9,2.64,2.9,2.9H480.1l6.33-2.9,5-2.37"/><polyline class="cls-21" points="234.79 350.77 235.78 351.36 236.37 351.79 237.07 352.2 237.81 352.95 238.35 353.39 238.43 353.54 238.6 353.84 225.99 354.4 226.48 351.76 227.77 349.19"/><polyline class="cls-21" points="230.17 349.59 231.63 349.83 233.14 350.35 233.41 350.44"/><polyline class="cls-21" points="182.47 374.51 180.99 369.26 179.41 363.03 178.22 358.68 178.22 355.35 178.81 350.44 178.81 348.07 179.31 346.22 179.7 344.14 180.35 342.16 180.99 340.48 181.98 339.3 182.47 338.44 182.97 337.12 186.73 336.03 190.58 336.03 193.15 336.58 195.53 337.62 198.79 339.4 201.59 340.58 203.84 342.16 206.8 344.64 208.29 345.63 209.57 347.01 211.65 349.23 213.92 352.95 215.21 355.35 215.21 357.3 215.21 359.67 216.49 361.25 217.88 362.14 218.47 363.13 219.16 363.13 220.15 365.74 221.74 372.13 223.62 380.14 225.17 389.34 225.17 396.33 225.17 403.29 225.17 407.54 224.11 409.62 222.33 413.87 220.85 415.45 217.88 417.53 215.41 417.92 213.13 417.92 210.36 416.84 205.32 413.47 203.24 411.59 200.77 409.71 199.11 408.68"/><polyline class="cls-21" points="135.66 323.8 139.09 323.8 140.74 324.69 142.52 325.45 144.2 326.54 145.98 327.73 147.36 329.01 148.95 330.4 149.74 331.38 151.12 333.07 152.01 334.55 153.99 337.12 154.78 338.04 155.47 339.79 156.16 341.08 156.16 341.74 156.16 342.26 156.16 343.55 156.16 344.84 157.25 345.33 158.11 346.12 158.84 347.71 159.43 349.68 159.92 350.87 160.52 352.95 160.91 354.4 161.51 356.11 162.56 359.57 163.58 362.24 164.31 364.02"/><polyline class="cls-21" points="152.69 389.33 150.92 386.67 149.24 383.21 147.66 380.64 146.47 377.77 145.48 375.2 144.1 372.23 141.26 364.02 140.67 363.1"/><path class="cls-22" d="M227.77,349.19l-.73-1.12h-1.58L224,349.23l-2.91,2-1.64-.39-.53-.86,1.18.33,1.85-.73,1-.39v-1.12l-1.38.56-1.65.56-1.19,0-.79-.6h.92c1.12-.63,3-1.62,3-1.62l-2.57.4-1.72.3-1.64-2.22-1.32-1.78-1.06-.85c-.2-.53.86,0,.86,0l.79.19a1.65,1.65,0,0,1,.73.66l2.11,1.45h3.42l2.25-.26,1.55-.46h1.41l1.52.72,4.61,1.59,3.37,1,2.9.82,2.9,1.71,1.52,1.55,1,1.16-3.56.59H236l.19-.49.93-.85-1.45,0-.86.4c.06-.73,0-1.85,0-1.85l-1.65-.42-3-.76h0Z"/><polyline class="cls-22" points="227.77 349.19 227.77 351.79 228.94 350.44 230.54 350.44 230.99 351.79 233.41 350.44 234.79 350.77"/><polyline class="cls-21" points="166.05 333.96 167.34 336.77 168.38 338.95 168.92 340.19 169.47 341.52 169.71 343.91 169.71 344.64 169.71 345.03 169.71 345.43 169.71 345.69"/><polyline class="cls-21" points="166.65 364.02 166.55 363.75 165.16 360.12 164.52 357.79 164.31 356.65 164.31 356.11 163.73 349.29 163.73 348.3 163.73 347.26 163.73 346.14 163.73 345.92"/><path class="cls-21" d="M164.31,341.72h0v-1.89l-.28-.67-.3-1.11-.79-1-1.09-1-.84-.49v-.74l.38-.44"/></svg>