<?xml version="1.0" standalone="no"?>
<!DOCTYPE svg PUBLIC "-//W3C//DTD SVG 20010904//EN"
 "http://www.w3.org/TR/2001/REC-SVG-20010904/DTD/svg10.dtd">
<svg version="1.0" xmlns="http://www.w3.org/2000/svg"
 width="500.000000pt" height="500.000000pt" viewBox="0 0 500.000000 500.000000"
 preserveAspectRatio="xMidYMid meet">

<g transform="translate(0.000000,500.000000) scale(0.100000,-0.100000)"
fill="#000000" stroke="none">
<path d="M2457 4519 c-10 -6 -39 -12 -65 -13 -26 -1 -87 -11 -137 -20 -372
-72 -440 -90 -545 -141 -174 -85 -370 -193 -411 -227 -54 -45 -114 -152 -161
-289 -33 -93 -33 -97 -22 -170 17 -108 29 -131 147 -276 53 -66 58 -75 53
-110 l-6 -38 11 33 c9 31 13 33 37 26 33 -10 128 -7 201 6 30 6 73 10 96 10
39 0 41 -2 73 -59 28 -52 32 -68 32 -137 1 -48 7 -98 18 -129 28 -80 110 -222
143 -247 16 -13 68 -56 115 -96 47 -39 88 -72 92 -72 10 0 75 -61 94 -88 18
-27 1 -28 263 17 575 99 614 104 678 90 36 -8 72 -24 87 -37 27 -26 29 -26
-50 4 -55 21 -154 16 -362 -17 -106 -17 -218 -34 -248 -39 -175 -27 -333 -53
-390 -65 l-65 -14 67 6 c63 5 67 4 84 -21 30 -48 67 -59 199 -61 125 -2 145 0
145 17 0 6 -16 8 -35 6 -46 -5 -32 8 21 20 39 9 42 8 62 -22 11 -17 35 -62 52
-100 27 -62 33 -68 55 -63 16 3 29 -1 34 -10 14 -26 96 41 120 97 14 32 28 50
43 53 34 9 68 44 68 70 0 37 18 48 51 32 35 -19 79 -5 79 24 0 16 14 24 69 41
112 33 176 24 239 -34 42 -37 52 -70 52 -163 0 -166 -43 -268 -153 -363 -98
-86 -194 -130 -284 -130 -42 0 -77 32 -67 62 4 14 2 18 -5 14 -15 -10 -13 -47
4 -70 13 -17 24 -18 93 -14 101 7 190 51 286 142 l69 65 -7 -74 c-8 -84 5
-129 50 -170 22 -20 37 -25 81 -25 30 0 67 7 83 15 l30 16 0 -191 0 -190 -57
-74 c-32 -40 -83 -104 -113 -142 -64 -79 -135 -184 -205 -299 -27 -44 -67
-109 -90 -145 -22 -36 -85 -145 -139 -242 l-97 -178 -159 0 -160 0 -82 38
c-53 25 -95 52 -116 76 -33 37 -101 163 -135 246 -9 25 -23 56 -29 68 -12 23
-75 62 -100 62 -7 0 8 -10 32 -23 30 -14 51 -34 62 -57 141 -294 162 -323 281
-381 l80 -39 166 0 166 0 89 163 c170 309 374 629 480 751 34 39 78 95 99 124
l37 52 0 193 0 192 36 28 c30 25 34 33 29 58 -5 20 1 46 20 86 15 32 31 83 36
113 15 97 21 125 32 139 15 18 28 106 32 219 2 50 7 98 12 105 4 6 13 35 19
62 6 28 19 75 28 105 9 30 23 85 31 122 7 36 21 81 30 98 9 18 14 39 11 47 -4
9 7 27 29 47 48 44 71 104 90 229 14 97 14 111 0 152 -8 25 -15 51 -15 58 0 8
-18 43 -40 80 -22 36 -40 71 -40 77 0 7 20 35 45 62 25 28 45 56 45 63 0 7 3
22 6 32 6 18 2 15 -57 -54 -29 -35 -39 -28 -33 20 6 42 5 43 -95 162 -174 204
-392 380 -529 427 -29 10 -72 33 -96 52 -97 73 -160 90 -406 105 -91 6 -139
14 -178 29 -44 19 -72 22 -175 22 -67 0 -130 -5 -140 -11z"/>
<path d="M1296 3199 c-8 -54 -17 -254 -12 -248 6 6 25 272 20 278 -1 1 -5 -12
-8 -30z"/>
<path d="M1257 2884 c-9 -25 -12 -42 -7 -39 10 6 34 74 28 80 -2 2 -11 -16
-21 -41z"/>
<path d="M1253 2780 c0 -30 2 -43 4 -27 2 15 2 39 0 55 -2 15 -4 2 -4 -28z"/>
<path d="M1246 2709 c-3 -8 -6 -27 -8 -44 -2 -21 -7 -29 -18 -26 -54 15 -101
3 -99 -28 0 -11 3 -8 9 7 9 21 11 22 37 8 29 -15 69 -54 96 -96 10 -13 17 -19
17 -12 0 7 -24 37 -53 67 -50 52 -56 72 -12 41 11 -7 24 -13 29 -12 5 0 10 -6
11 -14 4 -25 46 -90 59 -90 6 0 22 -7 35 -17 33 -23 83 -23 89 -1 2 10 8 16
12 13 5 -3 12 0 16 6 4 8 3 9 -4 5 -7 -4 -12 -3 -12 2 0 6 12 13 27 17 20 5
23 9 13 15 -10 6 -4 10 21 15 61 11 158 -36 190 -92 6 -12 15 -20 19 -18 4 3
13 -2 20 -10 12 -14 15 -14 30 0 18 17 32 11 23 -11 -7 -19 -49 -18 -57 2 -4
9 -9 15 -11 12 -3 -3 -3 -13 1 -22 5 -13 21 -16 83 -16 84 0 124 8 115 21 -3
5 1 9 10 9 8 0 16 -5 18 -10 2 -7 21 -7 58 -1 l55 9 -49 1 c-27 0 -99 17 -160
37 -61 20 -126 36 -144 36 -47 0 -47 12 2 35 39 19 51 20 157 12 63 -5 132
-13 154 -19 51 -12 105 -13 105 -1 0 15 -112 81 -136 81 -12 0 -43 9 -69 20
-40 17 -69 20 -193 20 -129 0 -151 -2 -180 -20 -18 -11 -36 -28 -39 -38 -4 -9
-24 -32 -45 -50 -21 -19 -38 -40 -38 -48 0 -8 -10 -14 -25 -14 -16 0 -25 6
-25 16 0 46 -124 233 -134 203z m84 -181 c0 -22 -27 -3 -43 30 l-19 37 31 -29
c17 -17 31 -33 31 -38z m436 -39 c3 -5 -1 -9 -10 -9 -21 0 -46 11 -46 20 0 10
49 0 56 -11z m84 -61 c0 -5 -11 -8 -25 -8 -14 0 -25 4 -25 9 0 5 11 8 25 7 14
0 25 -4 25 -8z"/>
<path d="M1560 2536 c0 -2 7 -7 16 -10 8 -3 12 -2 9 4 -6 10 -25 14 -25 6z"/>
<path d="M1121 2514 c0 -11 3 -14 6 -6 3 7 2 16 -1 19 -3 4 -6 -2 -5 -13z"/>
<path d="M1627 2494 c18 -13 44 -39 59 -57 l26 -32 -19 33 c-17 32 -73 82 -90
82 -4 0 6 -12 24 -26z"/>
<path d="M1132 2470 c0 -14 3 -34 8 -45 l9 -20 -1 20 c0 11 -4 31 -8 45 l-8
25 0 -25z"/>
<path d="M1280 2483 c0 -6 4 -14 9 -17 5 -3 19 -38 31 -77 20 -67 20 -73 5
-112 -9 -23 -32 -60 -51 -82 -20 -22 -33 -35 -29 -28 3 7 -3 21 -14 32 -11 11
-17 22 -13 25 3 3 1 6 -5 6 -6 0 -10 6 -9 13 1 17 -35 119 -41 114 -9 -9 28
-131 51 -172 l24 -40 -27 -31 c-35 -39 -66 -148 -57 -198 8 -43 77 -105 134
-121 34 -10 37 -14 43 -55 l6 -45 1 38 c1 21 6 36 11 33 5 -4 57 0 116 8 134
17 155 33 155 113 0 41 -6 63 -26 93 -15 22 -25 43 -22 46 3 3 14 -10 25 -28
11 -19 40 -44 65 -58 l46 -24 37 19 c43 24 75 71 74 111 -1 28 -1 28 -9 -5 -9
-37 -39 -82 -60 -89 -8 -3 -5 6 8 23 12 15 22 33 22 39 0 6 -9 -4 -20 -21 -11
-18 -25 -33 -32 -33 -10 0 -9 -3 1 -9 11 -7 9 -10 -7 -15 -23 -8 -66 10 -58
23 3 4 -12 21 -33 36 -59 45 -128 160 -151 253 -8 28 -17 52 -22 52 -4 0 -5 8
-2 18 5 14 4 15 -5 2 -9 -13 -11 -12 -11 4 0 11 -3 17 -6 13 -7 -7 29 -103 76
-202 16 -33 32 -71 35 -85 4 -14 18 -44 31 -67 33 -58 34 -146 2 -167 -44 -28
-73 -29 -112 -2 -37 25 -106 41 -142 34 -12 -2 -19 -12 -18 -25 0 -18 -3 -19
-27 -13 -77 22 -125 87 -114 152 13 76 32 115 97 196 50 63 69 99 91 164 15
46 27 89 27 96 0 6 9 12 20 12 16 0 20 -7 20 -35 0 -23 4 -33 13 -30 17 7 16
58 -3 72 -8 7 -24 13 -35 13 -11 0 -33 9 -50 20 -22 14 -31 16 -37 7 -6 -9
-10 -8 -18 3 -6 9 -10 10 -10 3z m90 -43 c0 -4 -3 -22 -7 -41 -5 -28 -7 -30
-14 -14 -4 11 -8 32 -8 47 -1 20 3 26 14 22 8 -4 15 -10 15 -14z m284 -479
c-3 -3 -15 6 -27 18 l-22 24 27 -19 c14 -10 24 -21 22 -23z"/>
<path d="M2165 2460 l-40 -7 48 -2 c26 0 47 4 47 9 0 6 -3 9 -7 9 -5 -1 -26
-5 -48 -9z"/>
<path d="M2083 2443 c9 -2 23 -2 30 0 6 3 -1 5 -18 5 -16 0 -22 -2 -12 -5z"/>
<path d="M3224 2417 c-22 -20 -34 -37 -27 -37 6 0 18 9 26 20 28 40 97 48 164
17 32 -14 67 -81 59 -114 -4 -13 -2 -41 4 -62 8 -31 6 -51 -10 -104 -17 -54
-29 -73 -68 -106 -62 -53 -107 -74 -140 -66 -25 6 -26 5 -11 -10 24 -24 69 -7
145 54 81 65 98 105 98 231 1 79 -3 102 -20 133 -29 52 -55 68 -123 74 -56 5
-60 4 -97 -30z"/>
<path d="M2050 2411 c0 -6 17 -7 38 -4 51 8 53 13 4 13 -23 0 -42 -4 -42 -9z"/>
<path d="M1975 2405 c-5 -2 -26 -6 -47 -9 -20 -4 -39 -13 -42 -21 -5 -13 -2
-13 17 -1 25 16 109 28 132 20 30 -12 14 -23 -47 -35 -35 -7 -56 -15 -49 -17
19 -6 119 17 127 29 14 23 -52 47 -91 34z"/>
<path d="M1710 2372 c0 -6 5 -14 11 -17 6 -4 14 -17 19 -29 6 -14 9 -16 9 -5
1 9 -8 26 -19 39 -11 13 -20 18 -20 12z"/>
<path d="M1770 2350 c0 -4 7 -15 16 -26 12 -14 14 -15 11 -3 -4 12 -1 15 12
12 11 -3 18 1 18 10 0 10 -10 14 -29 13 -15 0 -28 -3 -28 -6z"/>
<path d="M1840 2328 c0 -10 26 -9 60 2 21 7 17 8 -17 7 -24 0 -43 -4 -43 -9z"/>
<path d="M3168 2303 c0 -16 0 -38 1 -50 1 -17 -5 -24 -24 -29 -30 -7 -45 -38
-45 -89 0 -26 -7 -39 -32 -59 -27 -21 -31 -29 -22 -43 17 -28 87 -29 125 -2
23 16 39 20 68 15 44 -7 73 10 97 56 34 65 -5 149 -91 197 -67 38 -75 38 -77
4z"/>
<path d="M1802 2280 c0 -14 4 -36 8 -50 8 -24 8 -24 8 5 0 17 -3 39 -8 50 -8
18 -9 18 -8 -5z"/>
<path d="M1760 2230 c0 -5 5 -10 11 -10 5 0 7 5 4 10 -3 6 -8 10 -11 10 -2 0
-4 -4 -4 -10z"/>
<path d="M1823 2150 c0 -30 2 -43 4 -27 2 15 2 39 0 55 -2 15 -4 2 -4 -28z"/>
<path d="M1320 1640 c-17 -63 -10 -81 44 -117 49 -33 94 -45 80 -20 -5 9 -4 9
6 0 11 -10 6 -20 -28 -51 -41 -38 -51 -69 -42 -132 3 -21 31 -51 57 -61 30
-11 44 -70 42 -172 -3 -136 42 -206 161 -253 39 -15 72 -25 75 -22 3 3 -23 15
-57 28 -76 27 -115 58 -145 113 -19 35 -23 57 -23 140 0 60 -5 110 -14 130
l-13 33 76 37 c42 19 106 49 143 66 82 36 82 52 0 75 -31 9 -78 31 -105 50
-30 21 -65 36 -95 41 -26 3 -56 12 -67 19 -11 7 -37 16 -57 20 -41 8 -45 17
-28 75 5 19 8 37 5 39 -2 2 -9 -15 -15 -38z m86 -116 c18 -14 18 -14 -6 -3
-31 14 -36 19 -24 19 6 0 19 -7 30 -16z m167 -59 c3 -15 -62 -18 -79 -4 -8 6
-14 17 -14 24 0 10 9 11 46 1 25 -6 46 -16 47 -21z m-113 -9 c0 -2 -8 -10 -17
-17 -16 -13 -17 -12 -4 4 13 16 21 21 21 13z m97 -32 c-3 -3 -12 -4 -19 -1 -8
3 -5 6 6 6 11 1 17 -2 13 -5z"/>
<path d="M2168 813 c12 -2 30 -2 40 0 9 3 -1 5 -23 4 -22 0 -30 -2 -17 -4z"/>
<path d="M1755 800 c17 -4 41 -8 55 -8 22 0 22 1 -5 8 -16 4 -41 8 -55 8 -22
0 -22 -1 5 -8z"/>
<path d="M2078 803 c12 -2 32 -2 45 0 12 2 2 4 -23 4 -25 0 -35 -2 -22 -4z"/>
<path d="M1983 793 c15 -2 37 -2 50 0 12 2 0 4 -28 4 -27 0 -38 -2 -22 -4z"/>
<path d="M1863 783 c15 -2 37 -2 50 0 12 2 0 4 -28 4 -27 0 -38 -2 -22 -4z"/>
</g>
</svg>
